<svg id="Layer_1" data-name="Layer 1" xmlns="http://www.w3.org/2000/svg" viewBox="0 0 710.85 747.04"><defs><style>.cls-1,.cls-6{fill:#2a67b2;}.cls-2,.cls-4{fill:#eb9336;}.cls-3{font-size:23.07px;fill:#231f20;font-family:MyriadPro-Regular, Myriad Pro;}.cls-4{font-size:64px;font-family:LEMONMILK-Medium, LEMON MILK;font-weight:500;}.cls-5{letter-spacing:-0.05em;}.cls-6{font-size:40px;font-family:LEMONMILK-Regular, LEMON MILK;}</style></defs><path class="cls-1" d="M622.13,608c2.21.19,3.3.62,4.06.29,18.49-7.92,37.07-15.62,49.28-33,7.81-11.16,15.82-22.2,24.2-32.93,8-10.21,17.45-18.78,31.27-23.18-24,54.24-59.48,97.71-108.7,131.61,46.34,3.4,91,8.89,135.74,14.61H368c43.32-6.64,86.9-10.9,132.66-14.86-49.38-34-85-76.77-107.9-131.45,8.63,3,14.86,7.91,20.82,13.22,11.18,10,20.05,22,27.87,34.51,11.18,17.87,27,29.38,45.65,37.77,3.67,1.65,7.38,3.23,11.08,4.81.1,0,.36-.26.65-.48.91-3.25-2.22-3.77-3.84-5.07-11.56-9.31-23.25-18.48-31.69-31-1.21-1.79-3.95-3.54-2.09-6.18,1.67-2.39,4.21-1.32,6.59-.86,12.35,2.4,23.59,7.66,34.54,13.55,8,4.31,15.66,9.2,23.64,13.53,19.3,10.48,29.67,27.09,33.66,48.21.29,1.54-.24,3.44,2.12,4.61,1.68-5.93,3.1-11.83,5-17.56A58.23,58.23,0,0,1,593,595.37c16.64-9.87,32.86-20.58,51.31-26.9,5.61-1.92,13.23-6.74,17.09-1.42,2.47,3.42-4.77,9.35-8.34,13.66C644.48,591.06,633.42,598.7,622.13,608Z" transform="translate(-308.53 -311.68)"/><path class="cls-2" d="M506.9,428.35c7.92,1.77,12.18,6.41,17.15,9.82,13.77,9.43,28.52,15.12,45.61,12.68,13.22-1.89,23.89-8.93,34.31-16.55,2.79-2,5.14-5,9.48-4.88-.28,6.27-4.33,10.86-6.83,15.9-12.92,26-20.23,53.7-25.79,82-3.67,18.69-7.56,37.33-11.47,56a20.29,20.29,0,0,1-2.48,5.89c-3.39,5.81-8,5.73-11.42,0-3.48-5.92-4.16-12.74-5.4-19.17-5.34-27.85-9.94-55.82-17.4-83.25-5-18.29-13.07-35.05-22.14-51.48C509.52,433.42,508.58,431.55,506.9,428.35Z" transform="translate(-308.53 -311.68)"/><path class="cls-2" d="M603.81,479.39c5.73,6.94,9.49,13.08,15.65,17,12.25,7.9,25.41,6.37,38.75,4.07,10.66-1.85,20.43-7.48,32.25-7.75-8.16,7.69-15.69,14.82-23.24,21.93a65.26,65.26,0,0,0-14.78,20.82c-4.53,10.09-11.24,16.86-21.92,20.75-17.43,6.34-14.19,4.81-14.11-9.19.13-20.82-4.36-40.64-10.76-60.21C605.07,485.05,604.74,483.18,603.81,479.39Z" transform="translate(-308.53 -311.68)"/><path class="cls-2" d="M433.26,493.65c7.19-2.25,13.47,2.26,20.07,3.89,9.49,2.35,18.78,4.86,28.74,4.82,12.05,0,21.67-4.34,29.38-13.43,1-1.17,2-2.8,4.08-2.67,2.29,3.19.63,6.37-.44,9.29a149.85,149.85,0,0,0-9,58.28c.27,6.34-2.12,6.89-7,4.91s-9.82-3.62-14.6-5.73c-3.66-1.62-7.36-3.3-9-7.56-8.16-21-22.72-36.6-41-49.08C433.57,495.81,432.73,495.43,433.26,493.65Z" transform="translate(-308.53 -311.68)"/><path class="cls-1" d="M561,441.66a25.27,25.27,0,0,1-25.49-25.35c.1-13.48,11.62-25.22,24.84-25.33,14.26-.13,26.41,11.62,26.41,25.51S575.09,441.67,561,441.66Z" transform="translate(-308.53 -311.68)"/><path class="cls-1" d="M668.91,640.27c16.8-25,33.1-47.73,47.11-72,2.28-3.93,5-10.38,9.83-8.79,4,1.33,3.56,8.21,3.76,12.94a28.11,28.11,0,0,1-4.54,16.35C711.4,610.39,694,628,668.91,640.27Z" transform="translate(-308.53 -311.68)"/><path class="cls-1" d="M398.26,558.94a18.54,18.54,0,0,1,3.56,2.8,62.33,62.33,0,0,1,6.29,8.67c10.6,19,22.67,37,35,54.86,2,2.9,5,8.78,4.51,9.19-4.39,3.31-7.15-1.5-10.16-3.49a130.76,130.76,0,0,1-37.86-38.55c-5.81-9-8.7-18.55-5-29.22C395.72,559.92,396.37,559,398.26,558.94Z" transform="translate(-308.53 -311.68)"/><path class="cls-1" d="M502.5,472.19c.1,11.09-8.12,19.47-19.28,19.66a19.32,19.32,0,0,1-19.88-19.17c0-10.46,9.26-19.48,19.93-19.45A19,19,0,0,1,502.5,472.19Z" transform="translate(-308.53 -311.68)"/><path class="cls-1" d="M640.18,491.86a19.6,19.6,0,0,1-19-20.15c.14-10.26,9.16-18.48,19.94-18.16,10,.29,18.06,8.94,18,19.26C659.09,483.67,650.72,492.08,640.18,491.86Z" transform="translate(-308.53 -311.68)"/><path class="cls-1" d="M419.73,517.83c19.88.7,29.74,11.35,29.41,31.92C438.53,539.46,431.35,527,419.73,517.83Z" transform="translate(-308.53 -311.68)"/><path class="cls-1" d="M701.75,517.49c-9.06,7.8-15.47,17.34-22.63,26.26-1.14,1.42-2,3.43-4.14,2.53s-1-2.88-.88-4.49C674.93,527.33,684,519.25,701.75,517.49Z" transform="translate(-308.53 -311.68)"/><polygon class="cls-1" points="49.39 174.48 94.46 172.87 250.95 42.35 412.78 174.58 455.74 174.54 250.95 0 49.39 174.48"/><rect class="cls-2" x="510.89" y="637.54" width="96.2" height="77.31"/><rect class="cls-1" x="614.64" y="637.54" width="96.2" height="77.31"/><text class="cls-3" transform="translate(517.76 741.27)">EB9336</text><text class="cls-3" transform="translate(559.91 593.36)">FONT USE</text><text class="cls-3" transform="translate(547.67 618.96)">LEMON MILK</text><text class="cls-3" transform="translate(625.45 741.27)">2A67B2</text><text class="cls-4" transform="translate(7.45 428.01)">SRI MANP<tspan class="cls-5" x="318.72" y="0">O</tspan><tspan x="372.09" y="0">WER</tspan></text><text class="cls-6" transform="translate(111.54 470.98)">S E R v i c e s</text></svg>